<svg id="Camada_1" data-name="Camada 1" xmlns="http://www.w3.org/2000/svg" viewBox="0 0 1080 1080"><defs><style>.cls-1{fill:#0436cf;}.cls-2{fill:#0437cf;}.cls-3{fill:#0538d0;}.cls-4{fill:#1141d2;}.cls-5{fill:#1544d3;}.cls-6{fill:#1544d2;}.cls-7{fill:#0e3fd1;}.cls-8{fill:#0c3dd1;}</style></defs><path class="cls-1" d="M1052.63,537.67c.23,283.12-229.76,513.59-512.66,513.73C256.08,1051.55,26,821.82,26,538.23,26,254.85,255.68,25.15,539,25.1,822.53,25,1052.4,254.46,1052.63,537.67ZM530.81,586c-10.71,0-20.67-.65-30.44.38-3.1.33-7.5,4.78-8.15,8-1,5.08,2.73,8.6,8.4,8.77,3.5.1,7,0,10.51,0h59.36c-7.93,11.61-15.17,21.77-21.89,32.25-3.32,5.17-7.1,7.25-13.46,7.21-43.18-.31-86.36-.16-129.54-.16H395.18c9.61-13.84,16.49-28.09,27.44-37.7,5.54-4.86,18.43-1.49,28-1.55,6.18,0,10.43-2.29,10.55-8.85s-4.48-8.35-10-8.41c-10.21-.13-20.44-.38-30.62.17a13,13,0,0,0-8.67,4.42c-13.44,17.6-26.65,35.4-39.45,53.48-2,2.84-2.95,8.07-1.69,11,1,2.38,6.07,4,9.44,4.21,9.53.56,19.11.2,29.53.2v10.44q0,74,0,147.93c0,10.33,2.39,12.91,11.92,12.92q117.72.06,235.44.09c8.12,0,11.89-3.56,11.89-11.51,0-11.67,0-23.34,0-35,0-6.2-1.5-11.47-8.94-11.22-6.84.22-8.19,5.06-8,11,.24,9.84.06,19.68.06,29.57H598.3V622.78c8.09,11.4,14.74,21.5,22.24,30.91,2.29,2.88,6.76,5,10.49,5.54,6.77.88,13.74.25,21.08.25,0,23.88.11,46.61-.06,69.34,0,6.28,1.19,11.62,8.48,11.59s8.56-5.53,8.53-11.69c-.1-19.84-.06-39.69,0-59.53,0-3.06.28-6.13.46-9.72,10.22,0,19.54.4,28.8-.2,3.69-.25,8.87-1.81,10.36-4.46,1.36-2.44-.38-7.78-2.38-10.75-11.23-16.68-23.14-32.9-34.41-49.56-4.2-6.21-9.23-8.78-16.74-8.72-32.68.28-65.35.13-98,.1-3.05,0-6.11-.26-9-.39V457.08h43.27c0,23.75,0,46.78,0,69.81,0,10.81,2.54,13.22,13.51,13.23q39.83,0,79.65,0H694c0,3.32,0,5.35,0,7.39.11,12,1.76,13.61,13.69,13.62s23.93-.19,35.88.07c7.45.17,10.89-3.48,11-10.44.19-13.13.14-26.26,0-39.39-.07-7.63-4.3-10.89-11.76-10.78-9.92.15-19.84,0-29.76,0-18.63,0-18.65,0-19.18,18.13a6.93,6.93,0,0,1-.78,1.84H609V456.77H770.81c.14,2.61.35,4.88.39,7.14.19,11.68,2,13.45,13.95,13.47s23.93-.11,35.89,0c7.28.08,10.91-3.44,11-10.52.12-12.84.08-25.68,0-38.52,0-7.39-3.5-11.31-11.28-11.18-10.79.17-21.59,0-32.38,0-16.48,0-16.91.45-17.19,17.29,0,1.64-.29,3.29-.45,5H719.48V347.81c3.7,0,6.85,0,10,0,10.28-.11,12.29-2,12.36-12.35.08-12.55,0-25.1,0-37.64,0-6.85-3.39-10.17-10.24-10.15-13.13,0-26.26.07-39.38,0-7.19,0-10.8,3.13-10.69,10.55.16,10.5,0,21,0,31.52,0,17.5,0,17.49,17.07,18.15a16.62,16.62,0,0,1,3.14.71v90.87H548.08V382.24h34.73c.2,2.73.45,5,.51,7.27.29,10.88,1.95,12.54,13,12.57,12.25,0,24.5-.07,36.75,0,6.72.05,10.57-2.76,10.59-9.76,0-13.71.08-27.43,0-41.14-.05-6-3.37-9.19-9.32-9.23-13.71-.1-27.42-.06-41.14,0-6.35,0-9.76,3.15-9.8,9.63,0,3.65,0,7.3,0,10.74H548.17V306.42c4.69,0,8.74.12,12.78,0,5.83-.22,9.5-3.27,9.58-9.17.18-14,.2-28-.16-42-.16-6.57-4-9.77-10.88-9.63-12.84.24-25.68.17-38.51,0-7.38-.09-10.74,3.6-10.81,10.64-.09,9.92,0,19.84,0,29.76-.13,20.95-.9,20.35,18.83,20.75.48,0,.95.54,1.55.89v57.06h-35c0-3.92.05-6.8,0-9.67-.21-10.91-2.44-13.06-13.63-13.09q-18.37,0-36.76,0c-6.72,0-10.26,3.18-10.22,10.14.07,13.13.1,26.26,0,39.39-.07,7.28,3.24,10.73,10.59,10.63,10.79-.13,21.59,0,32.38,0,16.59,0,16.58,0,17.78-16.91a11.86,11.86,0,0,1,1.05-3.05h33.69v57.2H376.79v-91c2.68-.2,4.93-.46,7.2-.51,11.27-.26,13.08-2,13.14-13.44.06-12,0-23.93,0-35.89,0-7.1-3.1-10.9-10.51-10.85-13.13.08-26.26.06-39.38,0-7.25,0-10.65,3.36-10.53,10.71.18,10.8,0,21.59,0,32.39,0,16.83,0,16.82,17.24,17.07,1.66,0,3.32.28,5.12.44V440h-51.8c0-3.91.06-7,0-10.17-.23-9.81-2.89-12.53-12.45-12.58-12.25-.05-24.51.19-36.76-.09-7.36-.16-11.14,3.41-11.31,10.27-.33,13.71-.21,27.43-.07,41.14.07,5.93,3.07,9,9.37,8.86,9.92-.21,19.84-.05,29.76-.05,19.91,0,19.91,0,21.81-19.44,0-.24.3-.46.74-1.08H469.78v65.82H384.55c0-4.15-.07-7.62,0-11.08.17-7.22-3.34-10.91-10.51-10.94q-19.69-.11-39.38,0c-6.57,0-10.5,3.09-10.52,10,0,13.42-.05,26.84,0,40.27,0,7.2,3.64,10.47,11,10.24,9.62-.3,19.25-.09,28.88-.07,16.94,0,21.05,2.82,20.7-19.12,0-.46.59-.92,1.26-1.9H473.1c11.78,0,14.14-2.4,14.15-14.43q0-27.14,0-54.27V457.13h43.56Z"/><path class="cls-2" d="M578.27,811.45H427v-152h9.47c35.58,0,71.17-.07,106.75.07,5.62,0,9.39-1.11,12.8-6.52,6.3-10,14-19.07,22.26-29.94Z"/><path class="cls-3" d="M683.32,642.38c-17.17,0-32.46.1-47.75-.15-1.58,0-3.56-1.84-4.62-3.35-8-11.36-15.85-22.85-24.69-35.68,16.83,0,32.35-.05,47.87.08a5,5,0,0,1,3.5,2C665.91,617,674.06,628.94,683.32,642.38Z"/><path class="cls-4" d="M478.43,358.78v26.49H451.89V358.78Z"/><path class="cls-5" d="M526.91,288.8V262.64h24.53V288.8Z"/><path class="cls-5" d="M698.34,331V304.46H723V331Z"/><path class="cls-6" d="M602.15,385.07V359h24.49v26.09Z"/><path class="cls-5" d="M265.88,433.76h24.24v26.65H265.88Z"/><path class="cls-7" d="M711.08,515.64h24.27v25.82H711.08Z"/><path class="cls-8" d="M812.72,434.21v26.35h-24V434.21Z"/><path class="cls-4" d="M355.85,328.5V304.36h24.24V328.5Z"/><path class="cls-7" d="M367.49,541.74H343.38v-24h24.11Z"/></svg>