<svg id="Camada_1" data-name="Camada 1" xmlns="http://www.w3.org/2000/svg" viewBox="0 0 1080 1080"><defs><style>.cls-1{fill:#0436cf;}.cls-2{fill:#0d3ed1;}.cls-3{fill:#0437cf;}</style></defs><path class="cls-1" d="M543.3,1054.37C257.71,1053.94,27.59,822.6,28.16,536.51,28.73,250.6,260.6,21.19,548.35,21.83c283.34.62,512.89,233.72,512.27,520.17C1060,824.66,827.64,1054.8,543.3,1054.37ZM518.16,340.76c3.21,7.71,5.52,13.25,7.82,18.8,2.07,5,4.28,10.87,11.09,8.11,6.38-2.58,5.16-8.2,2.95-13.52-4.4-10.55-8.28-21.35-13.15-31.67-1.64-3.47-5.66-5.81-8.59-8.67-2.78,3-6.74,5.54-8.17,9.08-8.34,20.65-16.07,41.54-24.06,62.33-2.42,6.29-5,12.5-8.15,20.2-8.88-16.19-16.69-30.93-25.08-45.33-2-3.46-5.93-5.81-9-8.67-2.7,3.48-6.72,6.57-7.89,10.51-7.08,23.88-13.48,48-20.17,72-2.16,7.74-4.5,15.43-7.32,25.1-1.58-4.69-2.46-7.16-3.25-9.66-10.63-33.54-21.13-67.11-32-100.56-1-3.11-4.31-7.33-6.85-7.55s-6.38,3.54-7.8,6.46c-7.83,16.07-15,32.46-22.59,48.65-4.32,9.22-6.8,21.8-14.16,26.4s-19.89,1.32-30.14,1.49c-.59,0-1.31.22-1.74,0-2.42-1.45-5.93-2.47-7-4.63-15-31.75-20.12-64.83-11.42-99.25,10.19-40.32,33.42-70.84,72.54-85.91,45.11-17.38,85.83-7.16,120.85,25.87,9.24,8.72,9.74,8,20-.25a249.55,249.55,0,0,1,38.42-25.73c8.26-4.4,18.47-5.23,27.88-7.37,5.26-1.19,9.09-3.57,7.81-9.43-1.09-5-4.73-6.59-10.06-5.88-22.9,3.08-43.61,11.25-61.79,25.59-4.51,3.56-8.86,7.34-13.33,11.05-1.9-1.76-3.2-2.93-4.47-4.13-46.49-44-123.26-44.07-169.55,0-41.49,39.52-53.85,87.9-42.58,143,2.49,12.18,6.75,24,10.34,36.5-8.71,0-17.29-.67-25.66.33-3.33.4-8.37,4.14-8.84,7-.87,5.29,3.5,8.08,9.08,8,8.8-.06,17.64.44,26.41-.16,6.2-.43,9.35,2.12,12.47,7.12,16.25,26.08,35.56,49.93,59.73,68.84,40.64,31.78,82.44,62.07,123.57,93.23,6.69,5.07,12.19,5.34,18.89.19,8.62-6.61,17.82-12.47,27.82-19.38,0,8.71-.7,15.55.3,22.15.47,3.12,3.75,7.59,6.5,8.22,5.44,1.25,7.5-3.36,7.58-8.28.14-7.92.38-15.87-.06-23.77-.32-5.86,1.57-9.52,6.5-13.05,17.67-12.61,36.82-23.95,51.83-39.27,20.58-21,43.79-28.15,71.78-24.16,1.44.21,2.92.15,4.39.23,27.41,1.56,46.25,14.95,55.93,40.77,1.84,4.9,4.41,8.9,10.2,6.89s5.35-6.52,3.72-11.64c-8.79-27.51-34.37-48.05-63.18-49.66-12.32-.69-24.7-.12-37-.12,14-19.25,26.7-37.07,39.84-54.58,1.53-2.05,5.24-3.31,8-3.42,10-.42,20,0,29.93-.29C714,438.71,716,434,716,428c0-6.25-4.32-6.72-9.09-6.68-8.69.07-17.38,0-26,0a9,9,0,0,1-.14-2.46q1.15-3.32,2.48-6.57c11.43-28,16.29-57,10.81-87-10.24-55.9-40.84-95-96-112.9-5.33-1.73-10.38-1.82-12.56,4s1.65,9.24,7.05,10.94c2.52.79,5,1.58,7.53,2.45,25.55,9,46,24.81,60.28,47.63,25.71,41,27.31,84.44,10.6,129.06-5.69,15.2-6.05,14.56-22.36,15.29-8,.36-11.77-2.17-14.73-9.59-5.54-13.86-12.16-27.3-18.85-40.66-1.34-2.68-5-5.79-7.6-5.79-2.21,0-4.81,4-6.51,6.61-1.36,2.15-1.62,5-2.38,7.51L578.87,445.3c-8.63-20.47-16.55-39.38-24.6-58.24-1.87-4.39-4-9.17-10.26-6.64s-4.59,7.35-2.81,11.85c5.17,13.09,10.48,26.13,15.74,39.19,5,12.51,9.84,25.13,15.35,37.43,1.15,2.57,4.9,5.31,7.58,5.45,2.16.11,4.89-3.31,6.65-5.69,1.32-1.77,1.5-4.39,2.18-6.64l20.57-68c5,10.92,10,19.85,13.3,29.39,3.83,11.16,10.31,16.27,22.18,14.28,3.21-.54,6.59-.08,9.89-.08.4.81.8,1.63,1.19,2.44C644,454.12,632,468.07,620.42,482.39,612,492.88,602.15,497.31,588,496.81c-44.26-1.57-76.58,31.09-77,68.89a8.18,8.18,0,0,1-2.82,5.78C497,579.43,485.66,587.05,474,595c-32.05-22.9-64-44.81-94.91-68.06-31.33-23.54-59.28-50.75-81.65-83.23a64.69,64.69,0,0,1-3.29-6.18c10,0,18.85-.48,27.61.14,7.64.54,11.66-2.44,14.7-9.35,8.72-19.86,18.1-39.42,27.78-60.32,1.66,4.78,3,8.3,4.11,11.89C379.2,414,389.86,448.1,401.09,482c1.25,3.76,5.69,6.46,8.65,9.65,2.52-3.22,6.28-6.07,7.35-9.72,7-23.92,13.39-48,20-72,2.76-10,5.64-19.94,8.93-31.59,9,16.06,16.89,30.45,25.26,44.53,1.73,2.92,5.5,6.56,8.18,6.44s5.88-4.31,7.15-7.41c6.75-16.55,12.94-33.33,19.37-50C509.73,362.21,513.54,352.58,518.16,340.76Zm199.73,311H525.49c0-4.35,1-8.75-.31-12.3-1.13-3.06-4.9-5.15-7.5-7.67-2.22,2.53-5.49,4.74-6.38,7.68-1.11,3.67-.27,7.94-.27,12.94-6.12,0-11.38-.4-16.55.09-12,1.12-18.34,7.41-18.35,18.38q-.15,103.86,0,207.72c0,10.74,5.34,17,15.7,19.09a52.48,52.48,0,0,0,10.45,1.13q119.7.11,239.39-.1c5.39,0,11-1.59,16.1-3.44,6.74-2.43,9.76-7.87,9.75-15.15,0-69.53,0-139.07-.1-208.6,0-10.9-6.12-17.33-17-18.78-5.44-.72-11-.67-17.34-1,0-19.66-.11-38.94.07-58.21.06-5.64-.58-10-7.66-10-7.24,0-7.64,4.56-7.6,10C718,612.58,717.89,631.63,717.89,651.71Z"/><path class="cls-2" d="M527.46,559.11c1.2-28,27-47.8,61.48-46.45Z"/><path class="cls-3" d="M491,719c0-16.9-.3-33,.32-49,.1-2.39,4.36-4.92,7.09-6.79,1.21-.82,3.43-.17,5.19-.17h236c12.62,0,12.76.17,12.77,12.81,0,14,0,28.09,0,43.17-17.8,0-35-.15-52.23.11-4.52.06-11.94-2.19-12,4.94s7.22,6.15,12.39,6.17c17,.08,33.91,0,51.34,0V820H742.8c-50.49,0-101-.06-151.45.09-5.06,0-13.21-2.17-13.07,5.81.13,6.92,7.85,5.38,12.86,5.39q75.29.13,150.57.06h10.61c0,16.82.18,33.18-.24,49.53-.05,2-3.1,4.33-5.29,5.57-1.56.89-4,.21-6.07.21H503c-11.52,0-12-.49-12-11.76,0-14.06,0-28.11,0-43.54h18.62c14.68,0,29.36.27,44-.28,3.1-.11,6.08-3.3,9.11-5.07-3.07-2-6.09-5.62-9.23-5.72-17.3-.57-34.62-.28-51.94-.28h-10V730.29h165c2,0,4.41.65,6.1-.14,3.32-1.55,6.27-3.89,9.38-5.9-3.17-1.74-6.33-5-9.51-5C608.76,719,555.05,719,501.34,719Z"/></svg>