<svg id="Camada_1" data-name="Camada 1" xmlns="http://www.w3.org/2000/svg" viewBox="0 0 1049.35 948.81"><defs><style>.cls-1{fill:#0336cf;}.cls-2{fill:#1382da;}.cls-3{fill:#1fc1e0;}</style></defs><path class="cls-1" d="M555.17,166.88V.63c3.7-.24,6.5-.58,9.31-.58Q766,0,967.52.11c31.87,0,58.43,11.57,73.16,41.22a83.46,83.46,0,0,1,8.31,35.8q.69,396.83.27,793.63c0,42.08-30.37,73.44-72.53,75.8-11.68.65-23.42.37-35.13.37q-186.15,0-372.3,0H555.36V782.41c-21.63,8.31-41.75,3.26-61.92-.75l.17.17c-1.84-1.74-3.41-4-5.54-5.16-28-16-42.51-44.2-38.53-75.07C453.35,672,477,645.25,508,639.36c14.94-2.84,30.86-.49,47.2-.49V311.49c13.07.85,25.39,2.89,37.55,2.2,33.49-1.91,61.93-27.22,69.43-60.38,6.95-30.77-8.59-64.52-37.27-80.9C602.5,159.6,579,159.5,555,166.77Z"/><path class="cls-2" d="M493.44,781.66V948.14c-3.56.23-6.7.61-9.83.61q-198.14,0-396.25,0c-41.94,0-73.19-22.28-84.39-60A89.08,89.08,0,0,1-.45,863.88Q-.8,670.24-.64,476.6A28.86,28.86,0,0,1,0,472.31H172.1c-11-37.31,1.16-67.44,25.4-85.84A81,81,0,0,1,297.28,388c19.81,15.93,37,53.11,24.34,84.33H493.05V639.45c-19.56-6-38.11-6.86-56.79.06-50.87,18.85-67.17,76.93-33.23,119.13,20.7,25.74,53.91,34.24,90.58,23.19Z"/><path class="cls-3" d="M493.05,472.33H321.62c12.63-31.22-4.53-68.4-24.34-84.33a81,81,0,0,0-99.78-1.53c-24.24,18.4-36.36,48.53-25.4,85.84H0q-.06-191-.2-382C-.33,33.42,42.84,0,89.51,0Q287.72.1,485.93.05c2.12,0,4.24.21,7.27.37v162c12.79,0,24.62-.56,36.36.18,8.59.54,17.07,2.78,25.61,4.26l-.2-.11c2,1.8,3.72,4,6,5.35,26.37,15.34,42.87,45.7,38.91,71.89-5.4,35.7-26.62,61.13-59.65,67.34-14.86,2.79-30.69.47-47.17.47Z"/></svg>